<?xml version="1.0" encoding="iso-8859-1"?>
<!-- Uploaded to: SVG Repo, www.svgrepo.com, Generator: SVG Repo Mixer Tools -->
<!DOCTYPE svg PUBLIC "-//W3C//DTD SVG 1.1//EN" "http://www.w3.org/Graphics/SVG/1.1/DTD/svg11.dtd">
<svg fill="#000000" version="1.1" id="Capa_1" xmlns="http://www.w3.org/2000/svg" xmlns:xlink="http://www.w3.org/1999/xlink" 
	 width="800px" height="800px" viewBox="0 0 111.397 111.397"
	 xml:space="preserve">
<g>
	<path d="M93.743,88.897l2.789-2.789c0.007-0.007,0.007-0.014,0.018-0.021l4.623-4.627c1.372-1.369,1.372-3.587,0-4.955
		c-1.369-1.369-3.583-1.369-4.955,0l-2.167,2.166L71.133,55.753l7.231-7.229c0.112-0.111,0.223-0.234,0.318-0.365l32.004-42.332
		c1.054-1.391,0.924-3.345-0.312-4.585c-1.235-1.241-3.187-1.381-4.582-0.337L63.255,32.704c-0.133,0.097-0.26,0.21-0.38,0.329
		l-7.23,7.229l-7.228-7.229c-0.113-0.111-0.236-0.221-0.366-0.318L5.718,0.708c-1.386-1.051-3.343-0.92-4.585,0.313
		C-0.106,2.255-0.25,4.206,0.797,5.604l31.799,42.539c0.096,0.134,0.208,0.264,0.329,0.378l7.23,7.229L17.234,78.672l-2.166-2.17
		c-1.373-1.369-3.586-1.369-4.956,0c-1.372,1.369-1.372,3.587,0,4.955l4.644,4.647l2.786,2.786L1.026,105.416
		c-1.369,1.369-1.369,3.586,0,4.955c0.685,0.685,1.581,1.026,2.478,1.026c0.896,0,1.796-0.342,2.478-1.026l16.522-16.522
		l2.789,2.789l4.644,4.645c0.685,0.681,1.581,1.026,2.478,1.026c0.897,0,1.797-0.346,2.478-1.026c1.373-1.373,1.373-3.59,0-4.955
		l-2.169-2.167l22.922-22.918L78.565,94.16l-2.166,2.167c-1.372,1.368-1.372,3.582,0,4.955c0.682,0.681,1.578,1.026,2.478,1.026
		c0.897,0,1.794-0.346,2.475-1.026l4.637-4.638c0.004-0.003,0.007-0.003,0.011-0.007l2.789-2.785l16.521,16.519
		c0.682,0.685,1.578,1.026,2.479,1.026c0.896,0,1.793-0.342,2.474-1.026c1.372-1.369,1.372-3.586,0-4.955L93.743,88.897z
		 M67.652,38.17l22.528-16.842L73.237,43.742l-9.534,9.534L53.167,63.81L27.768,89.205l-2.786-2.789l-2.785-2.786l25.399-25.398
		l10.527-10.534L67.652,38.17z M21.224,21.219l22.412,16.943l7.057,7.058l-5.571,5.578l-7.057-7.05L21.224,21.219z M60.6,66.287
		l5.581-5.578L89.1,83.627l-5.578,5.578L60.6,66.287z"/>
</g>
</svg>