<?xml version="1.0" ?><!-- Uploaded to: SVG Repo, www.svgrepo.com, Generator: SVG Repo Mixer Tools -->
<svg fill="#000000" width="800px" height="800px" viewBox="0 0 64 64" data-name="Layer 1" id="Layer_1" xmlns="http://www.w3.org/2000/svg"><path d="M50,12h-.61a1,1,0,0,1-.943-.667,9.486,9.486,0,0,0-17.573-.794,1,1,0,0,1-1.619.285A9.5,9.5,0,0,0,13,17.5V21a1,1,0,0,1-1,1H9A5,5,0,0,0,9,32h5V27a3,3,0,0,1,3-3H47a3,3,0,0,1,3,3v5a10,10,0,0,0,0-20Zm6,13H54V23h2Zm-2-4a4,4,0,0,0-4-4V15a6.006,6.006,0,0,1,6,6Z"/><rect height="5" width="2" x="20" y="38"/><rect height="5" width="2" x="42" y="35"/><rect height="5" width="2" x="31" y="44"/><path d="M47,26H17a1,1,0,0,0-1,1V58a1,1,0,0,0,1,1H47a1,1,0,0,0,1-1V27A1,1,0,0,0,47,26ZM24,31H22v5a2,2,0,0,1,2,2v5a2,2,0,0,1-2,2v9h2v2H18V54h2V45a2,2,0,0,1-2-2V38a2,2,0,0,1,2-2V31H18V29h6Zm11,0H33V42a2,2,0,0,1,2,2v5a2,2,0,0,1-2,2v3h2v2H29V54h2V51a2,2,0,0,1-2-2V44a2,2,0,0,1,2-2V31H29V29h6Zm11,0H44v2a2,2,0,0,1,2,2v5a2,2,0,0,1-2,2V54h2v2H40V54h2V42a2,2,0,0,1-2-2V35a2,2,0,0,1,2-2V31H40V29h6Z"/></svg>