<?xml version="1.0" encoding="utf-8"?>
<!-- Uploaded to: SVG Repo, www.svgrepo.com, Generator: SVG Repo Mixer Tools -->
<svg width="800px" height="800px" viewBox="0 -56 1136 1136" class="icon"  version="1.1" xmlns="http://www.w3.org/2000/svg"><path d="M430.08 303.064615s79.163077-235.323077 161.476923-228.824615S754.215385 303.064615 754.215385 303.064615s246.153846-5.513846 273.32923 86.843077-175.655385 216.812308-175.655384 216.812308 74.830769 205.981538 12.012307 271.163077-272.147692-82.510769-272.147692-82.510769-170.141538 118.744615-253.833846 99.052307c-83.495385-19.889231-22.843077-283.372308-10.830769-286.523077 12.012308-3.347692-182.153846-124.652308-171.323077-210.313846s200.664615-96.689231 274.313846-94.523077z" fill="#FFFE9F" /><path d="M871.975385 611.249231c43.716923-28.750769 192.984615-134.301538 167.975384-219.372308-19.101538-64.984615-133.513846-84.873846-210.707692-90.584615-25.6-1.969231-47.458462-2.56-61.046154-2.756923-2.756923-0.590769-4.923077-2.56-5.907692-5.316923-17.92-46.473846-89.206154-217.206154-165.809231-223.113847-0.984615 0-1.969231-0.196923-2.953846-0.196923-0.393846 0-0.984615-0.196923-1.378462-0.196923-78.966154-6.104615-151.630769 190.621538-164.233846 226.461539-1.181538 1.181538-2.56 1.772308-4.135384 2.166154-41.747692-0.590769-259.938462 1.575385-272.344616 98.264615-0.196923 1.378462-0.196923 2.56-0.393846 3.938461v0.196924c-8.467692 67.347692 92.750769 149.070769 147.298462 192.787692 6.104615 4.923077 12.406154 10.043077 17.32923 13.981538 1.772308 1.575385 2.953846 3.741538 2.953846 6.104616-8.270769 19.298462-17.92 62.621538-23.630769 107.323077-3.150769 23.630769-5.710769 51.396923-5.12 78.572307 0.984615 63.803077 17.92 100.036923 50.018462 107.716923 7.089231 1.575385 14.572308 2.363077 22.449231 2.363077 77.587692 0 193.969231-73.255385 228.430769-96.098461 2.953846-1.969231 6.695385-1.969231 9.649231 0 33.870769 22.646154 145.723077 93.538462 221.538461 93.538461 21.070769 0 39.187692-5.513846 52.184615-18.904615 57.107692-59.076923 10.043077-219.963077-5.513846-267.224615-1.378462-3.347692 0-7.483077 3.347693-9.649231z m-11.224616 263.483077c-10.830769 11.224615-26.387692 15.556923-44.701538 15.36-66.756923-3.347692-171.52-66.363077-215.433846-97.28-1.969231-1.378462-4.529231-1.772308-6.892308-1.378462l-1.969231-1.378461-2.56 1.772307c-1.575385 1.181538-150.449231 104.172308-235.323077 100.233846-3.544615-0.393846-6.892308-0.787692-10.043077-1.575384-12.209231-2.953846-21.267692-12.603077-27.56923-29.735385-25.6-69.710769 9.452308-223.901538 19.88923-241.230769 1.969231-1.378462 3.347692-3.347692 3.938462-5.710769 1.575385-7.483077-2.756923-10.830769-30.72-33.476923-48.049231-38.793846-148.283077-119.335385-140.996923-177.23077 8.861538-69.12 163.643077-89.796923 265.452307-86.843076 3.741538 0.196923 7.286154-2.363077 8.467693-5.907693 21.464615-63.606154 90.584615-227.84 152.615384-222.916923 63.015385 4.923077 133.316923 162.658462 155.175385 223.113846 1.181538 3.544615 4.529231 5.710769 8.270769 5.71077 66.56-1.575385 243.987692 10.043077 264.664616 80.541538 1.772308 5.907692 2.363077 12.012308 2.166153 18.116923-9.255385 84.676923-173.883077 186.88-175.655384 188.061539l-2.953846 1.772307 1.181538 3.150769c-0.787692 1.969231-0.787692 4.135385-0.196923 6.104616 0.590769 1.378462 39.187692 109.489231 36.627692 190.818461-1.181538 28.750769-8.073846 53.956923-23.433846 69.907693z" fill="#493B4E" /><path d="M384.393846 399.556923c-0.590769 0.590769-0.984615 1.575385-1.181538 2.363077-1.181538 5.907692-5.513846 27.963077 1.181538 25.403077 7.68-2.953846 79.556923-94.916923 176.64-95.113846 82.904615-0.196923 131.741538 44.898462 144.344616 58.289231 1.772308 1.969231 1.969231 5.316923 0.393846 7.483076l-30.129231 39.975385c-2.56 3.347692-0.393846 8.861538 3.544615 8.861539l79.36-2.56c2.363077 0 4.135385-2.363077 4.332308-5.12l0.984615-92.356924c0-4.726154-4.726154-7.089231-7.483077-3.938461l-29.932307 33.870769c-1.575385 1.772308-3.938462 1.969231-5.710769 0.393846-14.769231-13.193846-82.904615-70.498462-166.596924-69.513846-89.009231 0.984615-161.28 81.92-169.747692 91.963077z" fill="#493B4E" /><path d="M763.667692 448.196923l-96.68923 2.953846c-2.363077 0-3.741538-3.347692-2.166154-5.316923l37.021538-49.230769c0.984615-1.378462 0.984615-3.347692-0.196923-4.529231-14.178462-14.375385-62.227692-55.926154-140.8-55.729231-78.572308 0.196923-140.996923 61.833846-164.430769 85.07077-6.695385 6.695385-9.255385 9.058462-11.027692 9.846153-2.166154 0.787692-4.332308 0.393846-5.907693-1.378461-4.135385-4.726154-1.969231-19.298462 0.590769-30.523077l0.196924-0.984615 0.590769-0.787693c0.787692-0.984615 78.178462-93.144615 173.095384-94.326154 82.313846-0.984615 150.449231 54.153846 167.581539 69.316924 0.984615 0.984615 2.56 0.787692 3.347692-0.196924l37.809231-42.92923c1.772308-1.969231 4.529231-0.393846 4.529231 2.363077l-1.181539 113.033846c0.196923 1.969231-0.984615 3.347692-2.363077 3.347692z m-80.541538-5.710769l73.649231-2.363077c1.378462 0 2.56-1.378462 2.56-3.150769l0.984615-85.464616c0-2.756923-2.756923-4.332308-4.529231-2.363077l-31.901538 36.036923-2.363077-2.363076c-0.787692-0.787692-75.027692-72.467692-167.384616-71.286154-86.252308 0.984615-157.341538 79.36-166.990769 90.584615-0.393846 0.393846-0.590769 0.787692-0.590769 1.378462-1.575385 7.68-2.56 15.556923-2.166154 19.101538 1.772308-1.378462 4.923077-4.529231 7.876923-7.483077 24.024615-23.827692 87.827692-86.646154 168.96-87.04 97.476923-0.196923 148.086154 60.652308 150.252308 63.212308l2.363077 2.756923L681.353846 437.169231c-1.969231 1.969231-0.590769 5.316923 1.772308 5.316923zM397.193846 630.744615l-3.347692 83.495385c-0.196923 6.892308 6.498462 11.224615 11.224615 6.892308l31.113846-28.356923c2.363077-2.166154 5.316923-2.363077 7.876923-0.393847 18.904615 13.784615 101.218462 71.089231 167.581539 72.861539 68.135385 1.772308 167.778462-68.726154 186.289231-82.116923 1.969231-1.378462 3.150769-3.741538 3.150769-6.301539 0.393846-7.089231 0.984615-20.48-0.196923-20.48-1.575385 0-97.083077 85.267692-193.969231 84.283077-78.375385-0.787692-129.575385-43.716923-146.313846-60.061538-3.347692-3.150769-3.347692-9.058462-0.196923-12.406154l29.341538-30.72c4.726154-4.923077 1.772308-14.375385-4.52923-14.375385h-80.935385c-3.938462 0-6.892308 3.347692-7.089231 7.68z" fill="#493B4E" /><path d="M614.006154 769.378462h-2.56c-67.938462-1.772308-150.843077-59.667692-169.550769-73.649231-0.984615-0.787692-2.363077-0.590769-3.15077 0.196923L394.043077 736.492308c-1.969231 1.772308-4.726154 0-4.529231-2.756923l4.529231-111.655385c0-1.772308 1.378462-3.150769 2.953846-3.150769h108.504615c2.56 0 3.938462 3.938462 1.969231 5.907692l-45.292307 46.670769c-1.378462 1.378462-1.378462 3.741538 0 5.12 15.950769 15.556923 66.953846 58.683077 144.344615 59.47077 55.532308 0.393846 120.516923-27.372308 187.864615-80.541539 4.529231-3.544615 4.726154-3.741538 6.104616-3.741538h1.575384l1.181539 1.378461c0.984615 1.378462 2.363077 3.150769 0.787692 27.766154l-0.196923 2.166154-1.575385 1.181538c-4.332308 3.544615-112.836923 85.070769-188.258461 85.07077z m-174.276923-85.267693l2.166154 1.575385c0.984615 0.787692 96.295385 73.255385 169.747692 75.027692 65.575385 1.575385 163.052308-66.166154 183.335385-80.935384 1.378462-0.984615 2.363077-2.756923 2.363076-4.726154v-0.196923c0.196923-4.923077-4.332308-7.876923-7.876923-5.316923-65.378462 49.624615-128.393846 75.421538-182.941538 75.027692-97.28-0.984615-154.190769-66.953846-154.781539-67.544616l-2.756923-3.150769 38.99077-40.763077c1.969231-1.969231 0.787692-5.907692-1.969231-5.907692H403.692308c-1.575385 0-2.756923 1.378462-2.953846 3.150769l-3.347693 85.070769c-0.196923 2.953846 2.756923 4.529231 4.529231 2.756924l37.809231-34.067693zM377.107692 440.910769c-3.150769 0-5.710769 2.363077-5.710769 5.513846-0.984615 26.978462-4.923077 143.163077 0.196923 146.313847 3.347692 2.166154 9.255385 1.772308 13.193846 0.984615 2.756923-0.393846 4.726154-2.953846 4.726154-5.710769v-95.507693c0-5.710769 7.483077-7.876923 10.633846-3.150769l64.984616 102.203077c0.984615 1.575385 2.953846 2.756923 4.923077 2.756923h12.8c3.150769 0 5.710769-2.56 5.710769-5.710769v-139.815385c0-2.953846-2.166154-5.316923-4.923077-5.710769l-9.255385-1.378461c-3.544615-0.393846-6.695385 2.166154-6.498461 5.710769 0.393846 24.615385 1.772308 108.110769-0.196923 106.732307-1.969231-1.378462-61.243077-93.932308-72.073846-110.867692-0.984615-1.575385-2.953846-2.56-4.923077-2.56h-13.587693z" fill="#493B4E" /><path d="M488.96 597.661538H466.707692c-0.984615 0-1.969231-0.590769-2.363077-1.378461l-66.166153-104.172308c-1.575385-2.363077-5.316923-1.378462-5.316924 1.575385v101.612308l-2.363076 0.590769c-1.378462 0.393846-13.981538 3.938462-20.676924-0.393846-1.772308-1.181538-7.483077-4.529231-1.575384-154.781539l0.196923-3.150769H395.815385l0.984615 1.575385c20.48 31.901538 48.64 76.012308 63.409231 98.461538 1.575385 2.363077 5.12 1.181538 5.12-1.575385 0.196923-23.630769-0.393846-65.969231-0.984616-95.113846V437.169231l25.009231 3.544615c1.378462 0.196923 2.363077 1.378462 2.363077 2.756923V594.707692c0.196923 1.772308-1.181538 2.953846-2.756923 2.953846z m-113.230769-6.695384c2.363077 0.393846 5.513846 0.196923 8.270769-0.196923 1.378462-0.196923 2.363077-1.378462 2.363077-2.756923V484.430769c0-6.695385 8.664615-9.058462 12.209231-3.544615l69.316923 108.898461c0.590769 0.787692 1.378462 1.378462 2.363077 1.378462h12.20923c1.575385 0 2.756923-1.181538 2.756924-2.756923v-139.224616c0-1.378462-0.984615-2.56-2.363077-2.756923l-8.664616-1.181538c-1.772308-0.196923-3.347692 1.181538-3.150769 2.953846 1.969231 107.323077 0.393846 108.110769-1.772308 109.292308l-1.772307 0.984615-1.772308-1.181538c-0.787692-0.590769-2.756923-1.772308-72.861539-111.655385-0.590769-0.787692-1.378462-1.378462-2.363076-1.378461h-13.193847c-1.575385 0-2.756923 1.181538-2.756923 2.756923-1.969231 50.806154-3.544615 126.621538-1.181538 141.784615 0.196923 0.984615 1.181538 1.969231 2.363077 2.166154z m-1.772308-0.196923z" fill="#493B4E" /><path d="M531.889231 524.209231l60.061538 3.544615s2.166154-31.113846-29.932307-32.492308c-32.295385-1.575385-30.129231 28.947692-30.129231 28.947693z" fill="#FCD383" /><path d="M600.024615 537.009231l-76.20923-4.529231-0.59077-7.68c-0.196923-1.772308-0.984615-17.132308 9.846154-28.16 6.892308-7.089231 16.738462-10.436923 29.144616-10.043077 12.012308 0.590769 21.661538 4.726154 28.356923 12.209231 10.633846 12.012308 9.846154 27.766154 9.846154 29.538461l-0.393847 8.664616zM541.538462 515.938462l40.566153 2.363076c-0.787692-2.756923-2.166154-5.710769-4.332307-8.073846-3.544615-3.938462-9.058462-6.104615-16.147693-6.498461-7.089231-0.393846-12.603077 1.181538-15.950769 4.726154-2.166154 2.166154-3.347692 4.923077-4.135384 7.483077z" fill="#493B4E" /><path d="M531.889231 545.870769s5.907692 31.901538 30.129231 34.067693c16.147692 1.378462 24.221538-9.452308 27.766153-16.738462 1.772308-3.741538 5.710769-5.907692 9.846154-5.513846l0.984616 0.196923c6.498462 0.787692 10.436923 7.68 7.876923 13.587692-4.726154 10.830769-16.738462 24.812308-46.276923 26.584616-48.836923 2.953846-51.003077-51.987692-51.003077-51.987693v-23.04c0-0.984615 0.196923-2.166154 0.590769-3.150769 2.363077-7.286154 14.572308-37.021538 49.821538-38.793846 40.172308-2.166154 52.381538 35.446154 53.169231 47.064615 0.196923 2.56 0.196923 4.726154 0.196923 6.498462 0.196923 5.513846-4.332308 10.043077-9.846154 9.846154l-65.772307-0.59077c-1.378462 0-2.756923 0.196923-3.938462 0.787693l-3.544615 1.181538z" fill="#493B4E" /><path d="M558.276923 601.206154c-12.603077 0-23.236923-3.741538-31.704615-11.421539-17.723077-15.950769-18.904615-42.732308-18.904616-43.913846v-25.206154l0.196923-0.393846c0.196923-0.393846 11.224615-40.566154 53.169231-42.929231 39.778462-2.166154 55.532308 33.476923 56.516923 50.018462 0.787692 11.815385 0 17.132308 0 17.329231l-0.393846 2.756923-79.556923-0.787692-1.969231 0.787692c1.969231 7.089231 8.861538 27.175385 26.584616 28.750769 21.070769 1.969231 26.387692-19.692308 26.584615-20.676923l0.590769-2.756923 25.403077 2.756923v2.953846c0 0.393846-1.378462 39.187692-52.578461 42.141539-1.378462 0.590769-2.56 0.590769-3.938462 0.590769z m-43.913846-78.375385V546.067692c0.196923 2.56 1.969231 25.6 16.738461 38.99077 7.876923 7.089231 18.116923 10.24 30.72 9.64923 27.569231-1.575385 38.793846-13.981538 43.323077-23.827692 2.166154-4.332308-0.787692-9.649231-5.710769-10.043077-2.953846-0.393846-5.513846 1.378462-6.892308 3.938462-4.529231 9.255385-14.178462 19.889231-30.916923 18.313846-26.387692-2.363077-32.689231-35.249231-32.886153-36.627693l-0.393847-2.56 6.695385-2.953846c0.984615-0.393846 1.969231-0.590769 2.756923-0.590769l66.363077 0.590769c3.938462 0 7.286154-3.150769 7.089231-7.286154 0-1.772308-0.196923-3.741538-0.196923-5.907692-0.590769-9.255385-11.224615-46.08-49.624616-43.913846-32.886154 1.772308-44.504615 29.735385-46.867692 36.627692-0.196923 0.787692-0.196923 1.575385-0.196923 2.363077zM620.898462 484.233846c0 0.590769 0 1.181538 0.196923 1.575385 2.953846 10.043077 32.295385 107.913846 34.461538 108.504615 1.575385 0.393846 10.436923 0.196923 15.950769 0.196923 2.56 0 4.726154-1.969231 5.316923-4.332307l12.012308-57.698462c1.181538-5.513846 9.058462-5.907692 10.633846-0.393846l17.92 58.486154c0.787692 2.363077 2.756923 3.938462 5.12 3.938461l10.633846 0.196923c2.363077 0 4.529231-1.575385 5.316923-3.938461l31.113847-98.461539c1.181538-3.544615-1.575385-7.286154-5.316923-7.286154h-9.255385c-2.56 0-4.726154 1.575385-5.316923 4.135385l-14.966154 54.547692c-1.378462 5.316923-8.861538 5.513846-10.633846 0.196923l-17.723077-55.138461c-0.787692-2.363077-2.953846-3.741538-5.316923-3.741539h-10.436923c-2.56 0-4.726154 1.772308-5.316923 4.135385l-14.572308 55.532308c-1.378462 5.316923-8.861538 5.513846-10.633846 0.393846L639.606154 484.430769c-0.787692-2.166154-2.953846-3.741538-5.316923-3.741538h-13.390769v3.544615z" fill="#493B4E" /><path d="M737.870769 597.858462l-20.086154-0.196924c-0.984615 0-1.969231-0.590769-2.166153-1.575384l-19.101539-62.621539c-0.787692-2.363077-4.135385-2.166154-4.529231 0.196923l-13.390769 64.196924h-2.56c-6.892308 0.196923-18.904615 0.393846-21.070769-0.196924-2.56-0.590769-3.544615-0.984615-34.658462-103.778461-1.378462-4.529231-2.166154-7.286154-2.363077-7.68l-0.196923-0.984615v-5.316924c0-1.378462 0.984615-2.363077 2.363077-2.363076h18.904616c0.984615 0 1.969231 0.590769 2.166153 1.575384l22.449231 64.984616c0.787692 2.166154 3.938462 2.166154 4.529231-0.196924l15.753846-60.061538c0.196923-0.984615 1.181538-1.772308 2.363077-1.772308h20.086154c0.984615 0 1.969231 0.590769 2.166154 1.575385l19.101538 59.273846c0.787692 2.166154 3.938462 2.166154 4.529231 0l16.147692-59.076923c0.196923-0.984615 1.181538-1.772308 2.166154-1.772308h22.843077c1.575385 0 2.756923 1.575385 2.166154 3.15077L740.233846 596.676923c-0.393846 0.590769-1.181538 1.181538-2.363077 1.181539z m-78.769231-6.498462c2.756923 0 7.483077 0 12.209231-0.196923 1.181538 0 1.969231-0.787692 2.166154-1.772308l15.753846-75.618461c0.393846-1.772308 1.969231-3.150769 3.741539-3.15077 1.772308 0 3.544615 1.181538 4.135384 2.953847l23.236923 76.012307c0.393846 0.984615 1.181538 1.575385 2.166154 1.575385l10.633846 0.196923c0.984615 0 1.969231-0.590769 2.363077-1.575385l31.113846-98.264615c0.393846-1.575385-0.590769-3.150769-2.166153-3.150769h-9.058462c-0.984615 0-1.969231 0.787692-2.166154 1.772307L732.553846 565.563077c-0.590769 2.166154-3.741538 2.363077-4.529231 0l-24.221538-75.618462c-0.393846-0.984615-1.181538-1.575385-2.166154-1.575384H691.2c-0.984615 0-1.969231 0.787692-2.363077 1.772307l-19.889231 76.012308c-0.590769 2.166154-3.741538 2.363077-4.52923 0.196923l-27.963077-80.738461c-0.393846-0.984615-1.181538-1.575385-2.166154-1.575385H624.246154v0.590769c0.393846 0.984615 1.181538 3.741538 2.166154 7.286154 20.086154 66.56 27.963077 90.584615 30.72 98.067692 0.196923 0.787692 1.181538 1.378462 1.96923 1.378462zM795.175385 440.910769h15.163077c3.150769 0 5.710769 2.56 5.513846 5.710769l-6.498462 103.384616c-0.196923 2.953846-2.56 5.12-5.513846 5.12h-2.756923c-2.953846 0-5.316923-2.166154-5.513846-5.12l-5.907693-103.384616c-0.196923-2.953846 2.363077-5.710769 5.513847-5.710769z" fill="#493B4E" /><path d="M808.566154 558.473846h-12.209231c-1.969231 0-3.544615-1.575385-3.741538-3.544615l-5.907693-105.156923c-0.393846-6.498462 4.923077-12.012308 11.421539-12.012308h17.723077c2.166154 0 3.741538 1.772308 3.741538 3.938462l-7.089231 113.427692c-0.393846 1.772308-2.166154 3.347692-3.938461 3.347692z m-6.104616-6.498461c1.969231 0 3.544615-1.575385 3.741539-3.347693l6.301538-100.430769c0.196923-2.166154-1.575385-3.938462-3.741538-3.938461h-12.012308c-2.166154 0-3.741538 1.772308-3.741538 3.938461l5.710769 100.430769c0.196923 1.772308 1.772308 3.347692 3.741538 3.347693zM789.267692 571.076923v23.236923l26.781539 0.393846v-23.630769z" fill="#493B4E" /><path d="M811.323077 597.858462l-17.329231-0.196924c-4.332308 0-7.876923-3.544615-7.876923-7.876923v-13.981538c0-4.332308 3.544615-7.876923 7.876923-7.876923h17.329231c4.332308 0 7.876923 3.544615 7.876923 7.876923v14.178461c0.196923 4.332308-3.544615 7.876923-7.876923 7.876924z m-10.830769-6.498462h4.332307c4.332308 0 8.073846-3.544615 8.073847-7.876923v-0.984615c0-4.332308-3.544615-7.876923-7.876924-7.876924h-4.332307c-4.332308 0-7.876923 3.544615-7.876923 7.876924v0.984615c-0.196923 4.135385 3.347692 7.68 7.68 7.876923z" fill="#493B4E" /><path d="M536.221538 525.784615h55.729231s-0.196923-23.04-30.129231-23.04c-29.735385-0.196923-25.6 23.04-25.6 23.04z" fill="#FFFE9F" /><path d="M595.298462 529.132308h-61.833847l-0.393846-2.756923c0-0.393846-1.772308-10.436923 4.923077-18.116923 4.923077-5.907692 13.193846-8.664615 24.024616-8.861539 32.689231 0.196923 33.28 26.190769 33.28 26.387692v3.347693z m-55.926154-6.695385h48.836923c-1.378462-5.710769-6.498462-16.541538-26.387693-16.541538-9.058462-0.196923-15.36 2.166154-19.101538 6.498461-2.756923 3.347692-3.347692 7.483077-3.347692 10.043077z" fill="#FFFE9F" /></svg>