<?xml version="1.0" encoding="iso-8859-1"?>
<!-- Uploaded to: SVG Repo, www.svgrepo.com, Generator: SVG Repo Mixer Tools -->
<svg version="1.1" id="Layer_1" xmlns="http://www.w3.org/2000/svg" xmlns:xlink="http://www.w3.org/1999/xlink" 
	 viewBox="0 0 512 512" xml:space="preserve">
<path d="M486.4,230.395H375.467v-68.267c0-3.328-1.963-6.315-4.949-7.765c-2.987-1.365-6.571-0.853-9.131,1.28l-20.053,16.981
	L256,244.816l-105.387-89.173c-2.56-2.133-6.144-2.645-9.131-1.28c-2.987,1.451-4.949,4.437-4.949,7.765v68.267H25.6
	c-14.08,0-25.6,11.52-25.6,25.6s11.52,25.6,25.6,25.6h110.933v68.267c0,3.328,1.963,6.315,4.949,7.765
	c2.987,1.365,6.571,0.853,9.131-1.28l90.027-76.203L256,267.173l85.333,72.192l20.053,16.981c1.621,1.365,3.584,2.048,5.547,2.048
	c1.195,0,2.475-0.256,3.584-0.768c2.987-1.451,4.949-4.437,4.949-7.765v-68.267H486.4c14.08,0,25.6-11.52,25.6-25.6
	C512,241.915,500.48,230.395,486.4,230.395z M136.533,264.528H25.6c-4.693,0-8.533-3.84-8.533-8.533c0-4.693,3.84-8.533,8.533-8.533
	h110.933V264.528z M227.328,269.051L153.6,331.429V180.56l89.173,75.435L227.328,269.051z M358.4,331.429l-17.067-14.421
	l-72.107-61.013l72.107-61.013L358.4,180.56V331.429z M486.4,264.528H375.467v-17.067H486.4c4.693,0,8.533,3.84,8.533,8.533
	C494.933,260.688,491.093,264.528,486.4,264.528z"/>
<path style="fill:#7E939E;" d="M494.933,255.995c0,4.693-3.84,8.533-8.533,8.533h-17.067v-17.067H486.4
	C491.093,247.461,494.933,251.301,494.933,255.995z"/>
<rect x="375.467" y="247.461" style="fill:#AFAFAF;" width="93.867" height="17.067"/>
<rect x="119.467" y="247.461" style="fill:#7E939E;" width="17.067" height="17.067"/>
<path style="fill:#AFAFAF;" d="M119.467,247.461v17.067H25.6c-4.693,0-8.533-3.84-8.533-8.533c0-4.693,3.84-8.533,8.533-8.533
	H119.467z"/>
<polygon style="fill:#CC004E;" points="227.328,269.051 153.6,331.429 153.6,207.611 "/>
<polygon style="fill:#9B0045;" points="358.4,180.56 358.4,331.429 341.333,317.008 341.333,194.981 "/>
<polygon style="fill:#CC004E;" points="341.333,194.981 341.333,317.008 269.227,255.995 "/>
<polygon style="fill:#9B0045;" points="242.773,255.995 227.328,269.051 153.6,207.611 153.6,180.56 "/>
</svg>