<?xml version="1.0" encoding="iso-8859-1"?>
<!-- Uploaded to: SVG Repo, www.svgrepo.com, Generator: SVG Repo Mixer Tools -->
<svg height="800px" width="800px" version="1.1" id="Layer_1" xmlns="http://www.w3.org/2000/svg" xmlns:xlink="http://www.w3.org/1999/xlink" 
	 viewBox="0 0 512.002 512.002" xml:space="preserve">
<path style="fill:#CFF09E;" d="M240.34,101.85l-58.11-58.11c-38.076-38.076-100.382-38.076-138.46,0l0,0
	c-38.076,38.076-38.076,100.383,0,138.46l58.11,58.11c38.076,38.076,100.382,38.076,138.46,0l0,0
	C278.416,202.232,278.416,139.926,240.34,101.85z M140.998,201.191l-58.11-58.11c-16.603-16.603-16.603-43.619,0.002-60.222
	s43.617-16.603,60.222,0l58.11,58.11c16.603,16.603,16.603,43.617,0,60.222C184.617,217.793,157.603,217.794,140.998,201.191z"/>
<g>
	<path style="fill:#507C5C;" d="M171.111,284.015c-30.275,0-58.666-11.717-79.942-32.994L33.06,192.913
		c-44.08-44.083-44.08-115.805,0-159.885C54.336,11.752,82.726,0.033,113.001,0.033s58.666,11.717,79.942,32.994l58.109,58.109
		c44.078,44.081,44.078,115.804,0,159.885C229.775,272.298,201.384,284.015,171.111,284.015z M113.001,30.33
		c-22.182,0-42.963,8.567-58.518,24.121c-32.267,32.267-32.267,84.769,0,117.037l58.109,58.109
		c15.555,15.555,36.336,24.121,58.519,24.121c22.182,0,42.963-8.567,58.518-24.121c32.267-32.267,32.267-84.77,0-117.037
		L171.52,54.451C155.965,38.898,135.181,30.33,113.001,30.33z M171.109,228.792c-15.433,0-29.932-5.999-40.823-16.889
		l-58.109-58.109c-22.509-22.509-22.509-59.137,0-81.647C83.07,61.257,97.569,55.26,113.001,55.26
		c15.433,0,29.932,5.997,40.823,16.888l58.11,58.109c22.508,22.511,22.508,59.137,0,81.645
		C201.041,222.793,186.543,228.792,171.109,228.792z M113.001,85.556c-7.341,0-14.231,2.846-19.401,8.015
		c-10.696,10.698-10.696,28.102,0.002,38.799l58.109,58.109c5.169,5.169,12.058,8.017,19.399,8.017s14.232-2.848,19.401-8.018
		c10.698-10.696,10.696-28.101,0-38.797l-58.112-58.109C127.23,88.401,120.34,85.556,113.001,85.556z"/>
	<path style="fill:#507C5C;" d="M398.999,511.969c-28.951,0-57.903-11.019-79.942-33.059l-58.109-58.109
		c-44.078-44.081-44.078-115.804,0-159.885c44.083-44.08,115.802-44.08,159.885,0c5.916,5.916,5.916,15.508,0,21.425
		c-5.917,5.914-15.506,5.914-21.425,0c-32.267-32.27-84.773-32.267-117.037,0c-32.267,32.267-32.267,84.77,0,117.037l58.109,58.109
		c32.268,32.268,84.772,32.27,117.037,0c32.267-32.267,32.267-84.769,0-117.037c-5.916-5.916-5.916-15.508,0-21.425
		c5.919-5.914,15.508-5.913,21.425,0c44.08,44.083,44.08,115.805,0,159.885C456.901,500.948,427.95,511.969,398.999,511.969z
		 M398.998,456.673c-14.784,0-29.569-5.628-40.823-16.883l-58.109-58.109c-22.509-22.509-22.508-59.136,0.002-81.647
		c22.509-22.503,59.134-22.509,81.645,0c5.917,5.916,5.917,15.506,0.002,21.423c-5.914,5.917-15.508,5.916-21.423,0.002
		c-10.699-10.696-28.104-10.696-38.799,0c-10.698,10.698-10.699,28.104-0.002,38.799l58.109,58.109
		c5.169,5.169,12.058,8.017,19.401,8.017c7.341,0,14.231-2.848,19.399-8.017c10.696-10.698,10.698-28.102,0-38.797
		c-5.916-5.916-5.916-15.508,0-21.425c5.917-5.914,15.506-5.914,21.425,0c22.508,22.508,22.508,59.134,0,81.645
		C428.567,451.046,413.781,456.673,398.998,456.673z"/>
	<path style="fill:#507C5C;" d="M310.777,325.895c-3.878,0-7.753-1.48-10.712-4.437L190.51,211.903
		c-5.916-5.916-5.916-15.508,0-21.425c5.917-5.914,15.506-5.914,21.425,0L321.49,300.033c5.916,5.916,5.916,15.508,0,21.425
		C318.531,324.415,314.655,325.895,310.777,325.895z"/>
</g>
</svg>