<?xml version="1.0" encoding="iso-8859-1"?>
<!-- Uploaded to: SVG Repo, www.svgrepo.com, Generator: SVG Repo Mixer Tools -->
<svg version="1.1" id="Layer_1" xmlns="http://www.w3.org/2000/svg" xmlns:xlink="http://www.w3.org/1999/xlink" 
	 viewBox="0 0 512 512" xml:space="preserve">
<path style="fill:#665247;" d="M389.565,233.739c-9.217,0-16.696-7.473-16.696-16.696c0-64.441,52.424-116.87,116.87-116.87
	c9.217,0,16.696,7.473,16.696,16.696C506.435,181.31,454.01,233.739,389.565,233.739z"/>
<path style="fill:#FDCD99;" d="M344.487,372.09c-3.117-6.567-5.009-13.802-5.009-21.482c0-9.238-7.456-16.696-16.696-16.696H256
	c-9.239,0-16.696,7.457-16.696,16.696c0,7.68-1.891,14.915-5.009,21.482c-5.009,10.351-13.245,18.588-23.598,23.597
	c48.641,48.64,19.923,19.923,66.894,66.894c3.339,3.339,7.57,4.897,11.799,4.897s8.459-1.558,11.799-4.897
	c52.313-52.313,39.623-39.624,66.894-66.894C357.732,390.678,349.496,382.442,344.487,372.09z"/>
<path style="fill:#F2AC7A;" d="M368.085,395.687c-27.271,27.27-14.582,14.581-66.894,66.894c-3.339,3.339-7.57,4.897-11.799,4.897
	V333.913h33.391c9.239,0,16.696,7.457,16.696,16.696c0,7.68,1.891,14.915,5.009,21.482
	C349.496,382.442,357.732,390.678,368.085,395.687z"/>
<g>
	<path style="fill:#736056;" d="M322.783,66.783H256c-46.032,0-83.478,37.446-83.478,83.478v22.261h233.739v-22.261
		C406.261,104.229,368.815,66.783,322.783,66.783z"/>
	<path style="fill:#736056;" d="M172.522,283.826c0,46.032,37.446,83.478,83.478,83.478h66.783
		c46.032,0,83.478-37.446,83.478-83.478v-22.261H172.522V283.826z"/>
</g>
<g>
	<path style="fill:#665247;" d="M289.391,367.304h33.391c46.032,0,83.478-37.446,83.478-83.478v-22.261h-116.87V367.304z"/>
	<path style="fill:#665247;" d="M322.783,66.783h-33.391v105.739h116.87v-22.261C406.261,104.229,368.815,66.783,322.783,66.783z"/>
	<path style="fill:#665247;" d="M155.826,400.696h33.391c7.709,0,14.929-1.894,21.459-5.019
		c10.336-4.945,18.664-13.273,23.609-23.609c48.491,48.492,23.092,23.092,63.419,63.419L221.191,512h-16.626h-82.13
		c-9.217,0-16.696-7.473-16.696-16.696v-44.522C105.739,423.164,128.207,400.696,155.826,400.696z"/>
	<path style="fill:#665247;" d="M204.577,512h251.77c9.239,0,16.696-7.457,16.696-16.696v-44.522
		c0-27.603-22.483-50.087-50.087-50.087h-33.391c-7.679,0-14.916-1.892-21.481-5.009c-10.352-5.009-18.589-13.245-23.598-23.597
		c-35.951,35.951-12.576,12.577-55.096,55.096C273.141,443.436,247.207,469.37,204.577,512z"/>
</g>
<path style="fill:#736056;" d="M204.577,512h84.814v-84.814C273.141,443.436,247.207,469.37,204.577,512z"/>
<rect x="172.522" y="166.957" style="fill:#FFE0B2;" width="233.739" height="100.174"/>
<rect x="289.391" y="166.957" style="fill:#FDCD99;" width="116.87" height="100.174"/>
<path style="fill:#DAE1E6;" d="M122.435,0C76.403,0,38.957,37.446,38.957,83.478v283.826H139.13V16.696
	C139.13,7.473,131.652,0,122.435,0z"/>
<path style="fill:#B7C4CC;" d="M89.043,367.304h50.087V50.087l0,0c-27.662,0-50.087,22.424-50.087,50.087V367.304z"/>
<path style="fill:#E6563A;" d="M38.957,333.913v161.391c0,9.223,7.479,16.696,16.696,16.696h66.783
	c9.217,0,16.696-7.473,16.696-16.696V333.913H38.957z"/>
<path style="fill:#F9A926;" d="M155.826,367.304H22.261c-9.217,0-16.696-7.473-16.696-16.696s7.479-16.696,16.696-16.696h133.565
	c9.217,0,16.696,7.473,16.696,16.696S165.043,367.304,155.826,367.304z"/>
</svg>